PathFileType	4	(X/Y/Z)	c:/Users/goper/Files/vsCode/490R/osim_files/C03/C03_Slow_01.trc
DataRate	CameraRate	NumFrames	NumMarkers	Units                	OrigDataRate	OrigDataStartFrame	OrigNumFrames
250.00	250.00	10	36	mm	250.0	2349	2684
                Frame#	Time	LPSIS			LASIS			LTH1			LTH2			LTH3			LTH4			LLFE			LMFE			LSH1			LSH2			LSH3			LSH4			LLMAL			LMMAL			LCAL			LMTP5			LTOE			LMTP1			RPSIS			RASIS			RTH1			RTH2			RTH3			RTH4			RLFE			RMFE			RSH1			RSH2			RSH3			RSH4			RLMAL			RMMAL			RCAL			RMTP1			RTOE			RMTP5		
		X1	Y1	Z1	X2	Y2	Z2	X3	Y3	Z3	X4	Y4	Z4	X5	Y5	Z5	X6	Y6	Z6	X7	Y7	Z7	X8	Y8	Z8	X9	Y9	Z9	X10	Y10	Z10	X11	Y11	Z11	X12	Y12	Z12	X13	Y13	Z13	X14	Y14	Z14	X15	Y15	Z15	X16	Y16	Z16	X17	Y17	Z17	X18	Y18	Z18	X19	Y19	Z19	X20	Y20	Z20	X21	Y21	Z21	X22	Y22	Z22	X23	Y23	Z23	X24	Y24	Z24	X25	Y25	Z25	X26	Y26	Z26	X27	Y27	Z27	X28	Y28	Z28	X29	Y29	Z29	X30	Y30	Z30	X31	Y31	Z31	X32	Y32	Z32	X33	Y33	Z33	X34	Y34	Z34	X35	Y35	Z35	X36	Y36	Z36

2349	9.39200	-2671.39209	1026.26245	255.21402	-2851.68311	974.84631	292.36011	-2802.11475	616.49951	332.70630	-2820.19800	556.81494	329.22156	-2874.39062	631.85925	349.92191	-2883.28613	570.92615	344.47073	-2843.68311	487.84973	334.50107	-2865.27051	466.02814	225.93936	-2670.87134	425.64273	325.67795	-2637.00781	393.12689	323.84695	-2708.15894	381.87125	344.47202	-2669.82104	358.39655	343.58264	-2534.52148	261.36337	314.47281	-2562.78589	241.15663	242.30948	-2474.64038	298.67065	270.94650	-2539.06592	115.10664	344.87952	-2578.32471	94.59898	296.79980	-2559.69775	106.13304	253.86758	-2676.51416	1030.41248	142.20276	-2851.68994	997.07220	86.94272	0.00000	0.00000	0.00000	-2749.89331	547.20612	81.22908	-2811.23877	614.33893	49.72190	-2828.45410	555.15826	57.29291	-2827.80908	484.88205	78.71702	-2801.07422	500.53659	188.66383	-2760.17383	290.35617	73.60327	-2769.13818	244.10602	78.29680	-2823.87451	293.15353	67.36919	-2823.01514	249.65231	72.03359	-2828.73364	97.75624	107.09911	-2843.75293	105.44202	185.78395	-2764.67603	64.42911	147.80139	-2973.67749	58.41798	192.34979	-2997.04980	74.95191	151.43762	-2950.83936	40.96832	89.27420
2350	9.39600	-2674.97437	1027.07507	254.63026	-2855.97461	975.58429	292.10425	-2810.06836	617.45367	332.16080	-2828.80469	558.12909	328.85840	-2882.05811	633.45837	349.43466	-2891.50757	572.61273	343.95605	-2852.99658	489.39255	333.79404	-2877.05615	469.42508	223.99730	-2679.68359	426.63397	324.63840	-2646.79468	393.75296	323.15720	-2717.83862	382.82422	343.73587	-2679.61108	359.29523	342.92569	-2545.10107	261.17590	313.87515	-2573.02979	240.98924	241.55092	-2485.32739	297.67780	270.77774	-2551.46973	115.14902	344.78970	-2590.06348	94.73053	296.84552	-2571.47876	105.95405	253.65645	-2681.11597	1030.61475	141.88684	-2855.84131	997.33124	86.64799	0.00000	0.00000	0.00000	-2752.12451	547.59735	81.38232	-2814.47852	614.64825	49.97656	-2830.73022	555.19794	57.42251	-2829.58960	484.95248	78.84531	-2803.40063	500.75418	188.82887	-2761.42578	290.57037	73.92997	-2769.92725	244.40572	78.63359	-2824.82178	293.21140	67.55518	-2823.73730	249.75714	72.27759	-2828.91187	97.77544	107.29089	-2843.95703	105.37560	185.96748	-2765.18457	64.30655	148.14636	-2973.77710	58.21312	192.43236	-2997.87939	75.55492	152.19507	-2950.89990	40.88510	89.25935
2351	9.40000	-2679.17969	1027.64453	254.26387	-2860.77612	976.75311	291.68555	-2817.96899	618.52771	331.69778	-2836.96655	559.17731	328.12692	-2888.99512	634.40820	348.49008	-2899.74194	574.34589	343.40552	-2862.27905	490.97571	333.19876	-2882.83594	469.39746	223.90068	-2689.28271	427.39764	323.85574	-2656.75562	394.67294	322.70813	-2727.51636	383.64420	343.01120	-2689.42773	359.95999	342.28104	-2555.81812	260.58542	313.30099	-2584.00537	240.70367	241.14655	-2495.26221	296.51236	270.23834	-2564.16235	114.99338	344.76553	-2603.23804	94.93150	296.39963	-2583.85059	105.80123	253.67952	-2685.61304	1030.69739	141.54768	-2859.69702	997.52313	86.29719	0.00000	0.00000	0.00000	-2754.37280	547.97504	81.60356	-2817.02490	614.81409	50.08355	-2833.01904	555.30164	57.61316	-2830.59497	484.83340	78.75317	-2805.45630	500.94376	188.95926	-2762.04980	290.92325	74.27791	-2770.65308	244.64001	78.96935	-2825.71680	293.26883	67.74754	-2824.45459	249.84158	72.47538	-2829.11060	97.86632	107.44434	-2844.19067	105.31049	186.17824	-2764.90137	64.47402	147.96219	-2973.85254	58.01398	192.49748	-2998.97900	76.53384	153.12094	-2950.95435	40.81775	89.25182
2352	9.40400	-2683.95728	1027.90845	253.99715	-2864.17407	977.01526	291.53265	-2825.58740	619.59021	331.20837	-2845.15796	560.27777	327.44849	-2897.29199	636.82526	348.36435	-2907.88013	576.11493	342.77167	-2871.25513	492.47101	332.47424	-2895.42432	472.90494	222.44727	-2698.68701	427.84167	323.12296	-2666.09766	394.32889	321.64087	-2737.27466	384.40479	342.38895	-2699.39893	360.54361	341.66791	-2566.40503	259.99820	312.74011	-2594.78223	240.18124	240.61522	-2505.41309	295.07877	269.82877	-2576.63135	114.64994	344.66272	-2616.36475	95.08655	296.35297	-2596.03540	105.29598	253.45604	-2689.47998	1031.35156	141.10756	-2863.83545	997.76831	86.01813	-2754.97070	609.91254	67.29233	-2756.72046	548.35022	81.71727	-2819.61304	614.87152	50.21059	-2835.42651	555.36023	57.81209	-2833.18823	485.02499	78.99997	-2808.16577	501.13004	189.03210	-2763.00415	291.25275	74.65550	-2771.29272	244.93716	79.31179	-2825.79321	293.20047	67.78382	-2825.25244	249.93152	72.67561	-2829.29028	97.94077	107.61924	-2844.41333	105.27534	186.37630	-2765.23926	64.44017	148.14621	-2973.94897	57.78814	192.58200	-3007.73364	82.27901	154.56677	-2951.02368	40.76337	89.25449
2353	9.40800	-2688.11548	1028.53650	253.57286	-2868.52979	977.77478	291.23102	-2833.23267	620.29285	330.71524	-2853.38623	561.54663	327.04065	-2904.81055	638.48596	347.84891	-2915.88379	577.90076	342.20532	-2880.04590	493.96100	331.66312	-2900.93823	472.92764	222.42979	-2707.96582	428.02301	322.29132	-2676.15381	394.89569	321.31747	-2747.42310	385.20856	341.96344	-2709.25830	360.95248	341.03610	-2577.32031	259.34521	312.28668	-2605.58521	239.55663	240.03542	-2515.55835	293.46561	269.38107	-2589.51099	114.26385	344.50284	-2628.79907	94.89008	296.02219	-2608.51172	104.86109	253.37088	-2693.60254	1031.82092	140.67964	-2867.86084	998.00018	85.63044	-2757.72534	610.37152	67.32825	-2759.04541	548.67035	81.83067	-2822.20654	615.07312	50.39531	-2837.80737	555.44464	57.95765	-2835.07935	485.12616	79.15813	-2810.37817	501.32632	189.20456	-2764.00171	291.64990	74.95636	-2772.17480	245.21381	79.60686	-2826.72095	293.27075	67.98136	-2826.14844	249.98251	72.89710	-2830.29565	97.91769	107.88401	-2844.61304	105.23623	186.57137	-2765.20459	64.52589	148.09529	-2973.56226	57.63202	192.85953	-2997.30444	72.91267	153.10345	-2951.08032	40.71527	89.25669
2354	9.41200	-2691.55054	1029.57495	253.09169	-2872.65942	978.54303	290.87064	-2840.67725	621.42004	330.30353	-2861.48779	562.83002	326.69708	-2912.14990	640.13129	347.27356	-2923.81982	579.70239	341.56912	-2889.07739	495.68439	330.91751	-2909.89258	474.71008	221.64571	-2717.23315	428.12860	321.54160	-2685.38330	394.20355	320.19904	-2756.63330	385.52411	341.14386	-2719.18677	361.12708	340.41650	-2588.08179	258.38513	311.74341	-2616.53931	238.81203	239.56688	-2525.80420	291.64597	268.92725	-2602.40186	113.76904	344.38959	-2641.92480	94.84127	295.84503	-2621.11548	104.12198	253.25674	-2697.56104	1032.30469	140.36485	-2871.78125	998.14374	85.30673	-2760.22607	610.71863	67.57240	-2761.33984	549.03278	82.05026	-2826.35522	616.01202	50.02912	-2840.14600	555.52124	58.23254	-2837.06519	485.15546	79.28365	-2812.58765	501.57153	189.40289	-2765.34131	291.89987	75.27093	-2772.96265	245.56688	79.93274	-2827.72656	293.32343	68.17243	-2826.73657	250.00145	73.02805	-2830.59570	98.01965	108.05742	-2844.81909	105.23195	186.74825	-2765.26904	64.61450	148.17384	-2973.67358	57.44725	192.92473	0.00000	0.00000	0.00000	-2951.16968	40.68670	89.24742
2355	9.41600	-2696.44556	1029.91882	252.94876	-2876.87012	979.28058	290.54730	-2848.23901	622.68964	330.15289	-2869.50610	564.17352	326.33807	-2919.42773	641.84937	346.67114	-2931.71094	581.55627	341.00546	-2897.95483	497.23645	330.16943	-2922.34229	478.46045	220.16295	-2726.52295	428.10464	320.82736	-2695.40503	394.36761	319.79755	-2766.46094	385.91519	340.61905	-2729.11328	361.28748	339.83170	-2598.95337	257.29990	311.17789	-2627.59766	237.95720	239.07266	-2535.57056	289.77145	268.28235	-2615.73340	113.07117	344.35840	-2655.08643	94.54041	295.69440	-2634.04688	103.43396	253.19904	-2702.15332	1032.36450	140.17258	-2875.86182	998.35876	84.94503	-2762.74731	610.54132	68.69500	-2763.68506	549.47412	82.27724	-2827.33398	615.22906	50.69274	-2842.45508	555.54211	58.43632	-2838.18359	485.03241	79.30376	-2814.88818	501.75909	189.59155	-2765.99951	292.37766	75.66825	-2773.75635	245.94766	80.28159	-2828.68604	293.41403	68.33488	-2827.58398	250.08661	73.28181	-2830.02271	98.16875	108.19863	-2844.99805	105.23831	186.91403	-2765.35303	64.67605	148.22910	-2974.36182	57.27321	192.81883	0.00000	0.00000	0.00000	-2951.24609	40.63491	89.26469
2356	9.42000	-2699.43628	1030.56445	252.82919	-2881.13013	980.00189	290.26880	-2855.66162	623.81470	329.97702	-2877.43701	565.44507	326.01810	-2926.69580	643.59192	346.15451	-2939.44165	583.34296	340.36679	-2906.33618	498.77661	329.31934	-2930.97778	480.30493	219.39148	-2736.60327	427.82709	320.54459	0.00000	0.00000	0.00000	-2776.09644	386.19415	339.92157	-2739.10718	361.25180	339.25372	-2609.88745	256.11853	310.58673	-2638.65503	236.80962	238.51155	-2545.93481	287.41263	267.78711	-2628.78174	112.35803	344.17737	-2668.89624	94.39163	295.78467	-2647.12109	102.53848	253.12233	-2705.66504	1033.12097	139.76627	-2879.74707	998.48743	84.56276	0.00000	0.00000	0.00000	-2765.99170	549.81934	82.49224	-2831.47729	616.24036	50.33620	-2844.88892	555.64453	58.61077	-2840.21338	485.10129	79.52202	-2817.14233	502.03226	189.76489	-2766.95825	292.82062	75.98391	-2774.38721	246.34470	80.57061	-2830.52808	293.56119	68.74596	-2828.42798	250.20474	73.47735	-2830.29980	98.25810	108.39166	-2845.17310	105.22359	187.07800	-2765.38159	64.74546	148.24951	-2974.40991	57.10335	192.87361	0.00000	0.00000	0.00000	-2951.30420	40.60806	89.27290
2357	9.42400	-2703.74048	1031.44897	252.09686	-2885.21875	980.66528	289.87662	-2862.79346	624.84241	329.59698	-2885.16846	566.61200	325.64957	-2933.87183	645.35504	345.61365	-2947.17163	585.27313	339.75092	-2915.12817	500.37839	328.49542	-2936.06323	480.45544	219.39548	-2745.91895	427.63837	319.99478	-2714.29370	392.74149	318.43680	-2786.19556	386.36026	339.45197	-2751.29492	359.94772	339.03558	-2620.74951	254.67642	310.08887	-2649.50293	235.56415	237.95360	-2555.83911	284.92694	267.14941	-2642.11914	111.51793	344.15985	-2681.95581	93.72923	295.59079	-2660.53687	101.70990	253.18881	-2708.97827	1033.68042	139.28946	-2883.77808	998.64966	84.19537	0.00000	0.00000	0.00000	0.00000	0.00000	0.00000	-2833.98950	616.33917	50.53022	-2847.28564	555.72693	58.78434	-2842.30322	485.20065	79.74186	-2819.83154	502.25549	189.99013	-2767.94385	293.15793	76.28623	-2775.22534	246.62404	80.85868	-2831.51050	293.62415	68.93519	-2829.31714	250.33090	73.69202	-2830.53687	98.30711	108.54355	-2845.35278	105.22897	187.23958	-2765.34888	64.74596	148.25243	-2974.47632	56.95100	192.90677	0.00000	0.00000	0.00000	-2951.35522	40.57866	89.27184
2358	9.42800	-2708.37769	1031.91296	251.96913	-2889.47388	981.44354	289.58310	0.00000	0.00000	0.00000	-2892.80518	568.03485	325.40634	-2940.89062	647.12512	345.11636	-2954.71924	587.14203	339.18857	-2923.54468	501.93640	327.75427	-2944.56396	482.39093	218.60902	-2755.71704	428.73138	320.95187	-2724.23047	392.51080	317.95578	-2795.30444	386.33435	338.75043	-2757.85547	359.29266	337.72272	-2631.81299	253.15495	309.59036	-2660.83716	234.39049	237.51517	-2566.68848	282.09671	266.74860	-2655.65015	110.57769	344.18527	-2695.89404	93.47295	295.64285	-2673.94800	100.68473	253.22258	-2713.01953	1033.87915	139.23885	-2887.58716	998.74414	83.79850	0.00000	0.00000	0.00000	0.00000	0.00000	0.00000	-2836.68652	616.49768	50.69484	-2849.55859	555.74713	58.97827	-2845.12988	485.32544	80.17653	-2821.71851	502.33350	190.19099	-2768.96680	293.60764	76.58534	-2776.04004	246.98114	81.21668	-2832.56006	293.75644	69.14991	-2830.19995	250.47960	73.93563	-2830.67554	98.45267	108.54639	-2845.52148	105.21555	187.41814	-2765.40210	64.80165	148.31213	-2974.55371	56.85930	192.95374	0.00000	0.00000	0.00000	-2951.38110	40.55231	89.26029
